<?xml version="1.0" encoding="utf-8"?>
<!-- Generator: Adobe Illustrator 27.6.1, SVG Export Plug-In . SVG Version: 6.00 Build 0)  -->
<svg version="1.1" id="Ebene_1" xmlns="http://www.w3.org/2000/svg" xmlns:xlink="http://www.w3.org/1999/xlink" x="0px" y="0px"
	 viewBox="0 0 64 64" style="enable-background:new 0 0 64 64;" xml:space="preserve">
<style type="text/css">
	.st0{fill:#339999;}
	.st1{display:none;fill:#2999A3;}
	.st2{display:none;fill:#FFFFFF;}
	.st3{fill:#FFFFFF;}
</style>
<path class="st0" d="M0,0h64v64H0V0z"/>
<path class="st1" d="M24,26h4v2h-4V26z M30,26h10v2H30V26z M26,20h12v2H26V20z M24,30h4v2h-4V30z M30,30h10v2H30V30z M24,34h4v2h-4
	V34z M30,34h10v2H30V34z M24,38h4v2h-4V38z M30,38h10v2H30V38z M24,42h4v2h-4V42z M30,42h10v2H30V42z"/>
<path class="st2" d="M19.7,16.7c0-2.8,2.3-5.1,5.2-5.1h12.9v10.2c0,1.4,1.2,2.6,2.6,2.6h10.3v23c0,2.8-2.3,5.1-5.2,5.1H24.8
	c-2.8,0-5.2-2.3-5.2-5.1v-8.9h14l-3.1,3.1c-0.8,0.7-0.8,2,0,2.7s2,0.7,2.7,0l6.5-6.4c0.8-0.7,0.8-2,0-2.7l-6.5-6.4
	c-0.8-0.7-2-0.7-2.7,0s-0.8,2,0,2.7l3.1,3.1h-14V16.7H19.7z M19.7,34.6v3.8h-8.4c-1.1,0-1.9-0.9-1.9-1.9s0.9-1.9,1.9-1.9
	C11.3,34.6,19.7,34.6,19.7,34.6z M50.6,21.8H40.3V11.6L50.6,21.8z"/>
<path class="st2" d="M24.9,20c0-3.9,3.2-7.1,7.1-7.1c2.8,0,5.3,1.7,6.4,4.1c0.7,1.4,2.4,2,3.8,1.4c1.4-0.7,2-2.4,1.4-3.8
	c-2.1-4.3-6.5-7.3-11.6-7.3c-7.1,0-12.8,5.7-12.8,12.8v4.3h-1.4c-3.1,0-5.7,2.6-5.7,5.7v17.1c0,3.1,2.6,5.7,5.7,5.7h28.5
	c3.1,0,5.7-2.6,5.7-5.7V30c0-3.1-2.6-5.7-5.7-5.7H24.9V20z"/>
<path class="st3" d="M31.8,18.3c-3.4,0-6.2,2.8-6.2,6.2v3.7h18.7c2.8,0,5,2.2,5,5v15c0,2.8-2.2,5-5,5h-25c-2.8,0-5-2.2-5-5v-15
	c0-2.8,2.2-5,5-5h1.2v-3.7c0-6.2,5-11.2,11.2-11.2c4.5,0,8.3,2.6,10.2,6.4c0.6,1.2,0.1,2.7-1.2,3.3c-1.2,0.6-2.7,0.1-3.3-1.2
	C36.4,19.7,34.3,18.3,31.8,18.3z M34.3,43.2c1.4,0,2.5-1.1,2.5-2.5s-1.1-2.5-2.5-2.5h-5c-1.4,0-2.5,1.1-2.5,2.5s1.1,2.5,2.5,2.5
	H34.3z"/>
</svg>
